<svg width="24" height="24" viewBox="0 0 24 24" fill="none" xmlns="http://www.w3.org/2000/svg">
  <g clip-path="url(#clip0_3801_268)">
    <path fill-rule="evenodd" clip-rule="evenodd" d="M5.02295 17.5813C5.02295 17.1192 5.39801 16.7441 5.86016 16.7441C6.32231 16.7441 6.69737 17.1192 6.69737 17.5813V20.9302C6.69737 21.3007 6.84463 21.6547 7.10589 21.9169C7.36826 22.1781 7.72202 22.3254 8.0926 22.3254H17.5808C17.9514 22.3254 18.3054 22.1781 18.5675 21.9169C18.8288 21.6545 18.9761 21.3007 18.9761 20.9302V3.06984C18.9761 2.69926 18.8288 2.34529 18.5675 2.08312C18.3052 1.82187 17.9514 1.67461 17.5808 1.67461H8.0926C7.72202 1.67461 7.36805 1.82187 7.10589 2.08312C6.84463 2.3455 6.69737 2.69926 6.69737 3.06984V6.41868C6.69737 6.88083 6.32231 7.25589 5.86016 7.25589C5.39801 7.25589 5.02295 6.88083 5.02295 6.41868V3.06984C5.02295 2.25597 5.34662 1.47464 5.92163 0.898686C6.49759 0.323833 7.27911 0 8.09278 0H17.581C18.3949 0 19.1762 0.32367 19.7522 0.898686C20.327 1.47464 20.6508 2.25616 20.6508 3.06984V20.9302C20.6508 21.744 20.3272 22.5254 19.7522 23.1013C19.1762 23.6762 18.3947 24 17.581 24H8.09278C7.27892 24 6.49759 23.6763 5.92163 23.1013C5.34678 22.5254 5.02295 21.7438 5.02295 20.9302V17.5813Z" fill="black" />
    <path fill-rule="evenodd" clip-rule="evenodd" d="M0.83721 12.837C0.375061 12.837 0 12.4619 0 11.9997C0 11.5376 0.375061 11.1625 0.83721 11.1625H12.5582C13.0203 11.1625 13.3954 11.5376 13.3954 11.9997C13.3954 12.4619 13.0203 12.837 12.5582 12.837H0.83721Z" fill="black" />
    <path fill-rule="evenodd" clip-rule="evenodd" d="M8.61759 8.68442C8.29056 8.35851 8.29056 7.82702 8.61759 7.50113C8.9435 7.1741 9.47499 7.1741 9.80088 7.50113L13.7079 11.4082C14.035 11.7352 14.035 12.2644 13.7079 12.5915L9.80088 16.4985C9.47497 16.8255 8.94348 16.8255 8.61759 16.4985C8.29056 16.1726 8.29056 15.6411 8.61759 15.3152L11.9318 11.9998L8.61759 8.68442Z" fill="black" />
  </g>
  <defs>
    <clipPath id="clip0_3801_268">
      <rect width="24" height="24" fill="white" />
    </clipPath>
  </defs>
</svg>