<svg width="156" height="34" viewBox="0 0 156 34" fill="none" xmlns="http://www.w3.org/2000/svg">
  <path d="M17 34C26.3888 34 34 26.3888 34 17C34 7.61116 26.3888 0 17 0C7.61116 0 0 7.61116 0 17C0 26.3888 7.61116 34 17 34Z" fill="#FFCD11" />
  <path d="M17 4C9.8 4 4 9.8 4 17C4 24.2 9.8 30 17 30C24.2 30 30 24.2 30 17C30 9.8 24.2 4 17 4ZM17 6.1C19.4 6.1 21.6 6.9 23.4 8.1L22 12.1H11.9L10.5 8.3C12.4 6.9 14.6 6.1 17 6.1ZM14.4 18.9H19.6L17 26.2L14.4 18.9ZM13.5 16.4L12.9 14.7H21L20.4 16.4H13.5ZM6.1 17C6.1 14.4 7 12.1 8.5 10.2L15 27.7C10 26.7 6.1 22.3 6.1 17ZM18.9 27.7L25.3 10C26.9 11.9 27.9 14.3 27.9 17C27.9 22.3 24 26.8 18.9 27.7Z" fill="white" />
  <path d="M42 9.7H46.4L50.1 18.7H50.3L54 9.7H58.4V24.2H55V15.3H54.9L51.4 24.1H49L45.5 15.2H45.4V24.2H42V9.7Z" fill="#333333" />
  <path d="M60.5 9.7H70.6V12.6H64V15.6H70.1V18.5H64V21.5H70.6V24.4H60.5V9.7Z" fill="#333333" />
  <path d="M72.3 12.6V9.7H84.6V12.6H80.2V24.3H76.7V12.6H72.3Z" fill="#333333" />
  <path d="M93.5 9.7H88.8L83.9 24.2H87.7L88.7 21.1H93.7L94.7 24.2H98.5L93.5 9.7ZM89.5 18.5L91.1 13.3H91.2L92.8 18.5H89.5Z" fill="#333333" />
  <path d="M107.4 14.1C107.4 13.6 107.1 13.2 106.8 12.9C106.4 12.6 105.9 12.5 105.2 12.5C104.7 12.5 104.4 12.6 104.1 12.7C103.8 12.8 103.6 13 103.4 13.2C103.2 13.4 103.2 13.6 103.2 13.9C103.2 14.1 103.2 14.3 103.3 14.5C103.4 14.7 103.5 14.8 103.7 14.9C103.9 15 104.1 15.1 104.4 15.2C104.7 15.3 105 15.4 105.3 15.4L106.5 15.7C107.2 15.9 107.9 16.1 108.4 16.3C109 16.6 109.4 16.9 109.8 17.2C110.2 17.6 110.5 18 110.7 18.4C110.9 18.9 111 19.4 111 20C111 20.9 110.8 21.7 110.3 22.4C109.8 23.1 109.2 23.6 108.3 23.9C107.4 24.3 106.4 24.4 105.2 24.4C104 24.4 102.9 24.2 102 23.9C101.1 23.5 100.4 23 99.9 22.2C99.4 21.5 99.1 20.5 99.1 19.4H102.5C102.5 19.9 102.7 20.3 102.9 20.6C103.1 20.9 103.4 21.1 103.8 21.3C104.2 21.5 104.6 21.5 105.2 21.5C105.7 21.5 106.1 21.4 106.4 21.3C106.7 21.2 107 21 107.2 20.8C107.4 20.6 107.5 20.3 107.5 20C107.5 19.7 107.4 19.5 107.2 19.3C107 19.1 106.8 18.9 106.4 18.8C106.1 18.7 105.6 18.5 105.1 18.4L103.6 18C102.3 17.7 101.3 17.2 100.6 16.6C99.9 16 99.5 15.1 99.5 14C99.5 13.1 99.7 12.3 100.2 11.6C100.7 10.9 101.4 10.4 102.2 10C103.1 9.6 104 9.4 105.1 9.4C106.2 9.4 107.2 9.6 108 10C108.8 10.4 109.5 10.9 109.9 11.6C110.4 12.3 110.6 13.1 110.6 14H107.4V14.1Z" fill="#333333" />
  <path d="M125.9 15H122.3C122.3 14.6 122.2 14.3 122 14C121.9 13.7 121.7 13.5 121.4 13.2C121.2 13 120.9 12.8 120.5 12.7C120.2 12.6 119.8 12.5 119.4 12.5C118.7 12.5 118.1 12.7 117.6 13C117.1 13.3 116.7 13.8 116.4 14.5C116.1 15.2 116 15.9 116 16.9C116 17.9 116.1 18.7 116.4 19.3C116.7 19.9 117.1 20.4 117.6 20.8C118.1 21.1 118.7 21.3 119.4 21.3C119.8 21.3 120.1 21.3 120.5 21.2C120.8 21.1 121.1 21 121.3 20.8C121.5 20.6 121.7 20.4 121.9 20.1C122.1 19.8 122.2 19.5 122.2 19.2H125.8C125.7 19.8 125.6 20.5 125.2 21.1C124.9 21.7 124.5 22.3 123.9 22.8C123.4 23.3 122.7 23.7 121.9 24C121.1 24.3 120.2 24.5 119.2 24.5C117.9 24.5 116.7 24.2 115.7 23.6C114.7 23 113.8 22.2 113.2 21.1C112.6 20 112.3 18.6 112.3 17C112.3 15.4 112.6 14 113.2 12.9C113.8 11.8 114.6 10.9 115.7 10.4C116.7 9.8 117.9 9.5 119.2 9.5C120.1 9.5 120.9 9.6 121.6 9.9C122.3 10.1 123 10.5 123.6 11C124.2 11.5 124.6 12 125 12.7C125.6 13.4 125.8 14.1 125.9 15Z" fill="#333333" />
  <path d="M136.5 9.7H131.8L126.9 24.2H130.7L131.7 21.1H136.7L137.7 24.2H141.5L136.5 9.7ZM132.5 18.5L134.1 13.3H134.2L135.8 18.5H132.5Z" fill="#333333" />
  <path d="M155.4 9.7V24.2H152.4L146.6 15.8H146.5V24.2H143V9.7H146L151.7 18.1H151.8V9.7H155.4Z" fill="#333333" />
</svg>